<svg xmlns="http://www.w3.org/2000/svg" xmlns:xlink="http://www.w3.org/1999/xlink" version="1.1" x="0px" y="0px" viewBox="0 0 100 100" enable-background="new 0 0 100 100" xml:space="preserve">
<rect x="20" y="20" height="60" width="60" fill="#FFF"/>
<path fill="#1F448E" d="M50,5C25.1,5,5,25.1,5,50c0,24.9,20.1,45,45,45c24.9,0,45-20.1,45-45C95,25.1,74.9,5,50,5L50,5z M50,74.8  c-2.5,0-4.4-2-4.4-4.4c0-2.5,2-4.4,4.4-4.4c2.4,0,4.4,2,4.4,4.4C54.5,72.8,52.5,74.8,50,74.8L50,74.8z M56.5,63  c-3.6-3.6-9.4-3.6-13,0l-4.3-4.3c6-6,15.7-6,21.6,0L56.5,63z M65.2,54.4c-8.3-8.4-21.9-8.4-30.3,0l-4.3-4.4  c10.7-10.7,28.2-10.7,39,0L65.2,54.4z M73.8,45.7c-13.1-13.2-34.5-13.2-47.6,0l-4.4-4.3c15.5-15.5,40.8-15.5,56.4,0L73.8,45.7z"></path></svg>